<?xml version="1.0" standalone="no"?>
<!DOCTYPE svg PUBLIC "-//W3C//DTD SVG 1.1//EN" "http://www.w3.org/Graphics/SVG/1.1/DTD/svg11.dtd" >
<svg xmlns="http://www.w3.org/2000/svg">
<metadata></metadata>
<defs>
<font id="verlaglight" horiz-adv-x="1724" >
<font-face units-per-em="2048" ascent="1638" descent="-410" />
<missing-glyph horiz-adv-x="438" />
<glyph horiz-adv-x="0" />
<glyph horiz-adv-x="682" />
<glyph unicode=" "  horiz-adv-x="438" />
<glyph unicode="&#x09;" horiz-adv-x="438" />
<glyph unicode="&#xa0;" horiz-adv-x="438" />
<glyph unicode="!" horiz-adv-x="415" d="M119 74q0 37 26.5 62.5t63.5 25.5t63.5 -25.5t26.5 -62.5q0 -38 -26.5 -64t-63.5 -26t-63.5 26t-26.5 64zM147 1501h123l-18 -1128h-88z" />
<glyph unicode="&#x22;" horiz-adv-x="729" d="M98 1014l189 372l112 -69l-237 -344zM367 991l190 375l115 -72l-240 -344z" />
<glyph unicode="#" horiz-adv-x="1153" d="M43 326l20 92h228l76 344h-228l21 92h227l74 328h104l-73 -328h288l74 328h102l-71 -328h225l-18 -92h-228l-78 -344h230l-21 -92h-229l-72 -326h-104l74 326h-291l-72 -326h-104l73 326h-227zM393 418h291l76 344h-289z" />
<glyph unicode="$" horiz-adv-x="878" d="M59 98l58 92q118 -89 245 -106l39 481q-141 62 -211.5 133t-70.5 187q0 127 92 215.5t240 97.5l10 133l90 -8l-10 -127q116 -14 223 -84l-51 -90q-78 59 -181 76l-36 -457q151 -69 219.5 -140t68.5 -188q0 -140 -97.5 -231.5t-242.5 -99.5l-10 -136l-90 7l10 131 q-142 16 -295 114zM227 893q0 -72 49 -122t134 -91l32 420q-105 -10 -160 -68t-55 -139zM453 80q97 9 159 67.5t62 157.5q0 78 -48 129t-139 94z" />
<glyph unicode="%" horiz-adv-x="1314" d="M96 901q0 127 67 213t183 86q117 0 183.5 -86t66.5 -213q0 -126 -67.5 -212.5t-184.5 -86.5q-115 0 -181.5 86.5t-66.5 212.5zM147 23l955 1191l65 -55l-954 -1192zM188 901q0 -90 42 -151.5t116 -61.5q73 0 114.5 61t41.5 152q0 92 -41 153.5t-115 61.5t-116 -61.5 t-42 -153.5zM721 281q0 127 66.5 213t183.5 86q116 0 182 -86t66 -213q0 -126 -67 -212.5t-183 -86.5q-117 0 -182.5 86t-65.5 213zM813 281q0 -91 41.5 -152t114.5 -61q75 0 116 61t41 152q0 93 -41 154t-116 61q-74 0 -115 -61.5t-41 -153.5z" />
<glyph unicode="&#x26;" horiz-adv-x="1218" d="M102 303q0 118 73.5 201t213.5 143q-92 144 -92 252q0 125 88.5 212t202.5 87q123 0 195.5 -75.5t72.5 -172.5q0 -218 -309 -342q100 -132 295 -311q88 90 221 276l80 -57q-153 -203 -230 -285q174 -152 213 -184l-67 -78q-95 77 -219 191q-191 -176 -379 -176 q-158 0 -258.5 86t-100.5 233zM215 301q0 -98 70 -159.5t180 -61.5q143 0 303 143q-228 217 -328 348q-107 -41 -166 -109.5t-59 -160.5zM406 903q0 -88 86 -223q143 58 201.5 120.5t58.5 141.5q0 67 -46 116.5t-120 49.5q-72 0 -126 -59.5t-54 -145.5z" />
<glyph unicode="'" horiz-adv-x="456" d="M98 1014l189 372l112 -69l-237 -344z" />
<glyph unicode="(" horiz-adv-x="686" d="M104 528q0 196 60 381t184 347t299 270l51 -84q-231 -142 -359 -388t-128 -526q0 -184 56 -355.5t166 -316t263 -237.5l-49 -86q-261 160 -402 428.5t-141 566.5z" />
<glyph unicode=")" horiz-adv-x="686" d="M-12 -381q231 140 359 384.5t128 524.5t-128 526t-359 388l51 84q175 -108 299 -270t184 -347t60 -381q0 -298 -141 -566.5t-402 -428.5z" />
<glyph unicode="*" horiz-adv-x="755" d="M68 1257l28 84l244 -86l-8 254h92l-8 -254l246 86l26 -84l-248 -75l158 -201l-72 -51l-147 209l-148 -209l-71 51l155 201z" />
<glyph unicode="+" horiz-adv-x="942" d="M123 524v101h295v309h106v-309h295v-101h-295v-309h-106v309h-295z" />
<glyph unicode="," horiz-adv-x="372" d="M78 -207q97 86 117 193q-43 4 -70 30.5t-27 61.5t25.5 59.5t60.5 24.5q43 0 71 -32t28 -83q0 -75 -52.5 -154.5t-130.5 -125.5z" />
<glyph unicode="-" horiz-adv-x="694" d="M102 446v101h490v-101h-490z" />
<glyph unicode="." horiz-adv-x="372" d="M98 74q0 37 25.5 62.5t62.5 25.5q38 0 64 -25.5t26 -62.5q0 -38 -26 -64t-64 -26q-37 0 -62.5 26t-25.5 64z" />
<glyph unicode="/" horiz-adv-x="653" d="M57 -442l490 1943h104l-487 -1943h-107z" />
<glyph unicode="0" horiz-adv-x="1069" d="M90 590q0 169 51.5 306t155 220.5t242.5 83.5q105 0 190 -48t140 -131.5t84.5 -194t29.5 -236.5q0 -168 -51 -304.5t-154.5 -220t-242.5 -83.5q-140 0 -242.5 83.5t-152.5 219.5t-50 305zM207 590q0 -141 36 -254t112 -183.5t182 -70.5t181.5 70.5t110.5 183t35 254.5 q0 143 -35 256.5t-110.5 184.5t-181.5 71t-182 -70.5t-112 -184.5t-36 -257z" />
<glyph unicode="1" horiz-adv-x="681" d="M80 1081l338 125h18v-1206h-112v1057l-209 -74z" />
<glyph unicode="2" horiz-adv-x="892" d="M31 18q320 336 436 480q93 110 136.5 190.5t43.5 167.5q0 109 -70 174.5t-188 65.5q-140 0 -270 -86l-33 94q148 96 301 96q172 0 274.5 -93t102.5 -241q0 -96 -48.5 -191t-152.5 -220q-164 -191 -321 -353h542v-102h-745z" />
<glyph unicode="3" horiz-adv-x="864" d="M66 35l32 96q151 -51 262 -51q136 0 214.5 69.5t78.5 184.5q0 117 -87.5 183.5t-239.5 66.5q-69 0 -142 -13l-12 19l428 487h-530v103h712l11 -19l-431 -491q12 2 31 2q169 -12 271 -103.5t102 -236.5q0 -153 -110 -252.5t-289 -99.5q-143 0 -301 55z" />
<glyph unicode="4" horiz-adv-x="974" d="M37 354v29l665 819h31v-747h197v-101h-197v-356h-106v356h-590zM217 455h410v503z" />
<glyph unicode="5" horiz-adv-x="937" d="M119 41l33 94q133 -53 266 -53q139 0 218 76t79 200q0 114 -79.5 184t-225.5 70q-126 0 -228 -26l-14 16v580h608v-103h-500v-374q58 10 136 10q198 0 306.5 -98.5t108.5 -256.5q0 -163 -110.5 -270.5t-292.5 -107.5q-143 0 -305 59z" />
<glyph unicode="6" horiz-adv-x="976" d="M98 401q0 229 155.5 441t487.5 381l50 -88q-426 -211 -541 -514q97 120 268 120q152 0 255.5 -101.5t103.5 -258.5q0 -106 -47.5 -196.5t-138 -146.5t-204.5 -56q-173 0 -281 117t-108 302zM213 375q0 -126 78 -210.5t196 -84.5q121 0 200 82t79 205q0 128 -75.5 206 t-196.5 78q-127 0 -204 -78t-77 -198z" />
<glyph unicode="7" horiz-adv-x="833" d="M45 1079v103h750l-527 -1182h-110l485 1079h-598z" />
<glyph unicode="8" horiz-adv-x="950" d="M115 315q0 97 55 174.5t147 114.5q-85 40 -132.5 112.5t-47.5 164.5q0 136 95 227.5t241 91.5q149 0 243.5 -91t94.5 -228q0 -92 -47.5 -164.5t-132.5 -112.5q93 -37 149 -114.5t56 -174.5q0 -141 -102.5 -237t-260.5 -96q-157 0 -257.5 95.5t-100.5 237.5zM227 317 q0 -104 70 -172.5t176 -68.5q107 0 178.5 68.5t71.5 172.5q0 102 -71.5 171t-178.5 69q-105 0 -175.5 -69t-70.5 -171zM246 879q0 -96 64 -163t163 -67q102 0 165.5 67t63.5 163q0 97 -63.5 162t-165.5 65q-100 0 -163.5 -65.5t-63.5 -161.5z" />
<glyph unicode="9" horiz-adv-x="962" d="M98 807q0 165 110.5 279t278.5 114q174 0 278.5 -117t104.5 -301q0 -111 -35.5 -217.5t-110 -212.5t-200 -206.5t-295.5 -186.5l-49 88q414 205 537 510q-93 -111 -250 -111q-155 0 -262 102t-107 259zM211 821q0 -128 74 -204t196 -76q125 0 200 76.5t75 197.5 q0 126 -76.5 207.5t-194.5 81.5q-121 0 -197.5 -79.5t-76.5 -203.5z" />
<glyph unicode=":" horiz-adv-x="372" d="M96 662q0 37 26.5 63.5t63.5 26.5t63.5 -26.5t26.5 -63.5t-26.5 -63t-63.5 -26t-63.5 26t-26.5 63zM98 74q0 37 25.5 62.5t62.5 25.5q38 0 64 -25.5t26 -62.5q0 -38 -26 -64t-64 -26q-37 0 -62.5 26t-25.5 64z" />
<glyph unicode=";" horiz-adv-x="372" d="M78 -207q97 86 117 193q-43 4 -70 30.5t-27 61.5t25.5 59.5t60.5 24.5q43 0 71 -32t28 -83q0 -75 -52.5 -154.5t-130.5 -125.5zM96 662q0 37 26.5 63.5t63.5 26.5t63.5 -26.5t26.5 -63.5t-26.5 -63t-63.5 -26t-63.5 26t-26.5 63z" />
<glyph unicode="&#x3c;" horiz-adv-x="780" d="M68 575l563 500l69 -76l-479 -426l479 -423l-69 -72z" />
<glyph unicode="=" horiz-adv-x="825" d="M123 379v100h579v-100h-579zM123 668v102h579v-102h-579z" />
<glyph unicode="&#x3e;" horiz-adv-x="780" d="M80 154l479 426l-479 424l70 71l563 -497l-563 -500z" />
<glyph unicode="?" horiz-adv-x="786" d="M45 1440q163 76 299 76q188 0 289.5 -95.5t101.5 -244.5q0 -61 -21.5 -115.5t-56.5 -95t-76.5 -77.5t-83.5 -71.5t-77 -69t-56.5 -77.5t-21.5 -90v-164h-106q-2 182 0 186q0 61 28.5 115.5t70.5 93.5t92 81.5t92 80t70.5 89.5t28.5 109q0 108 -73 173t-209 65 q-120 0 -260 -70zM199 74q0 37 26.5 62.5t63.5 25.5t63.5 -25.5t26.5 -62.5q0 -38 -26.5 -64t-63.5 -26t-63.5 26t-26.5 64z" />
<glyph unicode="@" horiz-adv-x="1400" d="M102 586q0 166 80 306.5t218 222t300 81.5q117 0 217 -33t169 -88t118.5 -127t72.5 -150t23 -157q0 -95 -30 -171.5t-86 -123.5q-64 -55 -146 -55q-54 0 -100 26.5t-70 75.5q-89 -96 -198 -96q-82 0 -137.5 46.5t-55.5 127.5q0 73 54 118.5t143 45.5q83 0 160 -41v31 q0 76 -37.5 110.5t-112.5 34.5q-60 0 -139 -27l-17 78q89 33 168 33q120 0 178 -57.5t58 -175.5v-123q0 -66 31 -96.5t77 -30.5q56 0 90 30q36 31 57 94t21 140q0 66 -18 132t-58.5 128.5t-98.5 110.5t-144 77t-189 29q-210 0 -355.5 -153t-145.5 -373q0 -110 38 -205.5 t108.5 -166.5t178 -112t238.5 -41q115 0 254 48q0 -1 1 -3.5t2.5 -9.5t3.5 -13.5t4 -15t4 -15.5t3.5 -13t2.5 -9l1 -3q-164 -52 -280 -52q-149 0 -273.5 48t-207.5 131t-129 194t-46 238zM573 473q0 -47 31 -73.5t84 -26.5q81 0 146 69v76q-65 45 -146 45q-52 0 -83.5 -23.5 t-31.5 -66.5z" />
<glyph unicode="A" horiz-adv-x="1425" d="M45 0l657 1526h21l657 -1526h-123l-194 459h-705l-192 -459h-121zM401 557h619l-309 735z" />
<glyph unicode="B" horiz-adv-x="1157" d="M178 10v1481q198 25 336 25q130 0 232 -30.5t165 -84t95 -121t32 -145.5q0 -135 -79 -225.5t-232 -131.5q172 -31 260 -130t88 -240q0 -83 -35.5 -158.5t-102 -134.5t-172.5 -94t-237 -35q-128 0 -350 24zM293 104q133 -18 248 -18q197 0 306 92t109 236 q0 142 -120.5 227.5t-348.5 85.5q-131 0 -194 -4v-619zM293 823q61 -4 186 -4q218 0 330.5 84.5t112.5 218.5t-101.5 214.5t-298.5 80.5q-121 0 -229 -18v-576z" />
<glyph unicode="C" horiz-adv-x="1515" d="M119 748q0 228 107.5 407.5t286 275t392.5 95.5q281 0 522 -164l-51 -96q-233 153 -477 153q-184 0 -332.5 -81.5t-235.5 -235t-87 -352.5q0 -149 51.5 -274.5t140.5 -210.5t210 -132t259 -47q240 0 477 152l41 -95q-245 -163 -518 -163q-162 0 -305.5 54.5t-250 153 t-168.5 243.5t-62 317z" />
<glyph unicode="D" horiz-adv-x="1515" d="M178 10v1481q192 25 365 25q163 0 303 -41t240 -112.5t171 -167.5t105.5 -205t34.5 -226q0 -125 -34 -240t-104 -213t-169 -170.5t-237.5 -113.5t-301.5 -41q-189 0 -373 24zM293 102q101 -16 262 -16q175 0 313 52t226 144.5t134 215t46 266.5q0 108 -30 205t-91 178.5 t-147 141t-204 93t-257 33.5q-158 0 -252 -16v-1297z" />
<glyph unicode="E" horiz-adv-x="1153" d="M178 0v1501h848v-102h-733v-586h661v-102h-661v-607h733v-104h-848z" />
<glyph unicode="F" horiz-adv-x="1112" d="M178 0v1501h848v-102h-733v-613h661v-102h-661v-684h-115z" />
<glyph unicode="G" horiz-adv-x="1595" d="M119 750q0 140 43 264.5t118.5 217t174 159.5t212.5 101t232 34q170 0 298 -46.5t257 -138.5l-61 -90q-234 169 -494 172q-138 0 -259 -50t-208 -138t-137.5 -213.5t-50.5 -271.5q0 -149 54 -275t145.5 -211.5t214.5 -133.5t260 -48q239 0 425 131v395h-428v107h543v-551 q-231 -184 -545 -184q-123 0 -239.5 33t-216.5 99t-175.5 157t-119 215t-43.5 266z" />
<glyph unicode="H" horiz-adv-x="1447" d="M178 0v1501h115v-686h862v686h115v-1501h-115v713h-862v-713h-115z" />
<glyph unicode="I" horiz-adv-x="487" d="M186 0v1501h115v-1501h-115z" />
<glyph unicode="J" horiz-adv-x="952" d="M35 90l61 88q122 -96 275 -96q142 0 219.5 92.5t77.5 274.5v1052h114v-1055q0 -219 -109 -345t-304 -126q-192 0 -334 115z" />
<glyph unicode="K" horiz-adv-x="1214" d="M178 0v1501h115v-698l702 698h148l-740 -729l768 -772h-151l-727 741v-741h-115z" />
<glyph unicode="L" horiz-adv-x="1050" d="M178 0v1501h115v-1397h733v-104h-848z" />
<glyph unicode="M" horiz-adv-x="1734" d="M156 0l51 1520l26 4l639 -1137l629 1137l27 -4l51 -1520h-117l-24 1200l-561 -985h-19l-561 987l-25 -1202h-116z" />
<glyph unicode="N" horiz-adv-x="1488" d="M178 0v1518l27 6l991 -1260v1237h115v-1519l-21 -5l-999 1274v-1251h-113z" />
<glyph unicode="O" d="M119 750q0 163 59 307.5t159 246.5t238 161t291 59q152 0 289 -59t236 -161t157 -246.5t58 -307.5q0 -218 -100.5 -395t-271.5 -276t-376 -99q-153 0 -289 58.5t-235 159.5t-157 245t-58 307zM244 750q0 -140 46.5 -263.5t127.5 -212.5t196 -140.5t248 -51.5 q177 0 319 88t221 240.5t79 339.5q0 188 -79 340.5t-221 240.5t-319 88t-319 -88t-220.5 -240.5t-78.5 -340.5z" />
<glyph unicode="P" horiz-adv-x="1136" d="M178 0v1491q163 20 309 20q141 0 253 -38.5t182 -104.5t106.5 -151t36.5 -183q0 -229 -157.5 -370.5t-430.5 -141.5q-73 0 -184 13v-535h-115zM293 637q124 -14 188 -14q220 0 340.5 111.5t120.5 293.5q0 160 -117 270.5t-325 110.5q-100 0 -207 -14v-758z" />
<glyph unicode="Q" d="M119 750q0 163 59 307.5t159 246.5t237 161t290 59t290 -59t235.5 -161t156.5 -246.5t58 -307.5q0 -154 -51 -288.5t-144 -238.5l195 -174l-72 -84q-154 144 -201 185q-207 -170 -473 -170q-153 0 -289.5 58.5t-235.5 159.5t-156.5 245t-57.5 307zM244 750 q0 -140 46.5 -263.5t127.5 -212.5t196 -140.5t248 -51.5q387 0 387 139q0 1 -77 71l-158 140l-78 70l72 82l317 -285q156 186 156 451q0 187 -79.5 340t-221.5 241t-318 88q-177 0 -319 -88t-220.5 -240.5t-78.5 -340.5z" />
<glyph unicode="R" horiz-adv-x="1208" d="M178 0v1487q190 24 322 24q272 0 420.5 -121t148.5 -323q0 -155 -91 -269t-257 -163l436 -635h-139l-410 610q-55 -8 -131 -8q-84 0 -182 8v-610h-117zM295 713q111 -13 188 -13q222 0 342.5 97t120.5 264q0 156 -113 252t-321 96q-109 0 -217 -18v-678z" />
<glyph unicode="S" horiz-adv-x="1058" d="M57 115l56 100q199 -135 389 -135q147 0 239.5 83.5t92.5 209.5q0 64 -20 113t-66.5 90t-101 72t-142.5 71q-93 41 -157 79.5t-115 88t-76 111t-25 137.5q0 165 126.5 278t324.5 113q184 0 338 -103l-56 -96q-135 94 -293 94q-148 0 -236.5 -79t-88.5 -199q0 -59 21 -106 t66.5 -86t95 -67.5t126.5 -64.5q105 -47 172 -87t121 -91t78 -113t24 -141q0 -181 -132 -296.5t-326 -115.5q-222 0 -435 140z" />
<glyph unicode="T" horiz-adv-x="1257" d="M61 1399v102h1135v-102h-508v-1399h-117v1399h-510z" />
<glyph unicode="U" horiz-adv-x="1449" d="M166 545v956h115v-954q0 -226 118 -344.5t324 -118.5q205 0 325.5 120t120.5 343v954h117v-956q0 -262 -153 -413.5t-410 -151.5q-263 0 -410 147.5t-147 417.5z" />
<glyph unicode="V" horiz-adv-x="1406" d="M39 1501h127l541 -1286l536 1286h125l-653 -1526h-23z" />
<glyph unicode="W" horiz-adv-x="1949" d="M70 1501h114l316 -1231l465 1239h20l469 -1235l313 1227h113l-393 -1521l-29 -5l-485 1285l-481 -1285l-29 5z" />
<glyph unicode="X" horiz-adv-x="1388" d="M76 0l555 756l-547 745h139l471 -661l473 661h136l-545 -743l553 -758h-137l-482 674l-481 -674h-135z" />
<glyph unicode="Y" horiz-adv-x="1282" d="M59 1501h129l457 -729l451 729h127l-525 -827v-674h-114v676z" />
<glyph unicode="Z" horiz-adv-x="1292" d="M94 20l912 1379h-861v102h1033l10 -20l-914 -1377h904v-104h-1076z" />
<glyph unicode="[" horiz-adv-x="604" d="M164 -442v1943h391v-94h-285v-1755h285v-94h-391z" />
<glyph unicode="\" horiz-adv-x="653" d="M2 1501h104l490 -1943h-107z" />
<glyph unicode="]" horiz-adv-x="604" d="M51 -348h285v1755h-285v94h391v-1943h-391v94z" />
<glyph unicode="^" horiz-adv-x="901" d="M176 993l248 305h61l246 -305h-121l-161 201l-154 -201h-119z" />
<glyph unicode="_" horiz-adv-x="1064" d="M0 0v102h1065v-102h-1065z" />
<glyph unicode="`" horiz-adv-x="901" d="M252 1176l63 110l369 -252l-39 -61z" />
<glyph unicode="a" horiz-adv-x="886" d="M78 252q0 119 91.5 193.5t227.5 74.5q123 0 260 -65v77q0 124 -58 182t-189 58q-117 0 -224 -47l-22 98q132 49 258 49q178 0 263 -84.5t85 -255.5v-532h-106v92q-49 -49 -120.5 -78.5t-150.5 -29.5q-136 0 -225.5 71.5t-89.5 196.5zM186 252q0 -84 62 -129t168 -45 q148 0 241 112v168q-68 38 -122.5 55t-122.5 17q-102 0 -164 -46.5t-62 -131.5z" />
<glyph unicode="b" horiz-adv-x="1036" d="M129 0v1501h113v-743q54 50 132.5 82t164.5 32q176 0 292.5 -124.5t116.5 -315.5q0 -188 -123 -318t-297 -130q-84 0 -160.5 31.5t-129.5 84.5v-100h-109zM242 213q49 -59 119.5 -95t152.5 -36q139 0 230.5 97.5t91.5 250.5q0 149 -88 246.5t-226 97.5q-168 0 -280 -129 v-432z" />
<glyph unicode="c" horiz-adv-x="868" d="M86 424q0 187 127.5 317.5t321.5 130.5q147 0 284 -86l-51 -88q-117 74 -240 74q-146 0 -238.5 -95.5t-92.5 -248.5q0 -149 97 -246.5t238 -97.5q122 0 242 74l45 -88q-137 -86 -284 -86q-195 0 -322 127t-127 313z" />
<glyph unicode="d" horiz-adv-x="1036" d="M88 424q0 188 123 318t297 130q169 0 287 -106v735h112v-1501h-108v104q-117 -120 -295 -120q-182 0 -299 124t-117 316zM201 426q0 -150 88.5 -247t228.5 -97q85 0 156.5 36t120.5 97v430q-48 58 -121.5 93.5t-159.5 35.5q-136 0 -224.5 -97.5t-88.5 -250.5z" />
<glyph unicode="e" horiz-adv-x="944" d="M86 426q0 122 48 222.5t142.5 162t217.5 61.5q176 0 273 -115.5t97 -297.5q0 -36 -4 -56h-661q8 -145 94.5 -232t255.5 -87q116 0 244 51q1 -6 3.5 -16t7.5 -31.5t8 -35.5t3 -13q-143 -55 -272 -55q-219 0 -338 124t-119 318zM203 494h553q-8 126 -76.5 203t-194.5 77 q-121 0 -194.5 -75.5t-87.5 -204.5z" />
<glyph unicode="f" horiz-adv-x="567" d="M49 756v26l144 80v275q0 187 78.5 283t224.5 96q79 0 133 -21l-21 -98q-46 16 -102 16q-103 0 -152 -61.5t-49 -200.5v-295h254v-100h-254v-756h-112v756h-144z" />
<glyph unicode="g" horiz-adv-x="1036" d="M88 424q0 188 123 318t297 130q89 0 165 -32t126 -84v100h108v-940q0 -191 -91.5 -285t-266.5 -94q-136 0 -285 49l21 105q126 -49 252 -49q133 0 195.5 64.5t62.5 201.5v188q-121 -112 -291 -112q-182 0 -299 124t-117 316zM201 424q0 -150 89.5 -247t233.5 -97 q80 0 151 35.5t120 95.5v430q-48 59 -122 96t-157 37q-138 0 -226.5 -98t-88.5 -252z" />
<glyph unicode="h" horiz-adv-x="954" d="M119 0v1501h112v-790q67 72 151.5 116.5t172.5 44.5q143 0 217 -81.5t74 -215.5v-575h-115v551q0 223 -199 223q-77 0 -157.5 -46.5t-143.5 -117.5v-610h-112z" />
<glyph unicode="i" horiz-adv-x="385" d="M111 1174q0 34 23.5 58.5t58.5 24.5q34 0 57.5 -24.5t23.5 -58.5t-23.5 -58t-57.5 -24q-35 0 -58.5 24t-23.5 58zM135 0v856h115v-856h-115z" />
<glyph unicode="j" horiz-adv-x="387" d="M-88 -444l14 98q52 -10 86 -10q65 0 97 34.5t32 112.5v1065h113v-1059q0 -131 -55 -193.5t-164 -62.5q-46 0 -123 15zM115 1174q0 34 24 58.5t58 24.5q35 0 58.5 -24.5t23.5 -58.5t-23.5 -58t-58.5 -24q-34 0 -58 24t-24 58z" />
<glyph unicode="k" horiz-adv-x="815" d="M129 0v1501h113v-1024l405 379h144l-445 -403l465 -453h-143l-426 422v-422h-113z" />
<glyph unicode="l" horiz-adv-x="382" d="M135 0v1501h113v-1501h-113z" />
<glyph unicode="m" horiz-adv-x="1531" d="M129 0v856h109v-145q157 161 327 161q91 0 151 -45.5t85 -130.5q66 78 157.5 126t190.5 48q122 0 192 -74t70 -216v-580h-115v561q0 211 -178 211q-155 0 -291 -166v-606h-114v557q0 109 -43.5 163t-137.5 54q-146 0 -290 -166v-608h-113z" />
<glyph unicode="n" horiz-adv-x="970" d="M129 0v856h109v-147q68 73 153 118t174 45q142 0 213.5 -81t71.5 -216v-575h-115v551q0 110 -47 166.5t-149 56.5q-77 0 -154 -45.5t-143 -118.5v-610h-113z" />
<glyph unicode="o" horiz-adv-x="1024" d="M88 428q0 187 120 315.5t306 128.5q185 0 304.5 -127.5t119.5 -314.5q0 -188 -120.5 -317t-305.5 -129q-186 0 -305 127.5t-119 316.5zM201 428q0 -152 86.5 -250t224.5 -98t224.5 98t86.5 250q0 153 -86 250.5t-225 97.5q-138 0 -224.5 -98t-86.5 -250z" />
<glyph unicode="p" horiz-adv-x="1036" d="M129 -442v1298h109v-104q124 120 301 120q174 0 291.5 -125.5t117.5 -316.5q0 -194 -121 -320t-307 -126q-147 0 -278 88v-514h-113zM242 195q115 -115 278 -115q138 0 227 96.5t89 251.5q0 149 -88.5 247.5t-225.5 98.5q-168 0 -280 -129v-450z" />
<glyph unicode="q" horiz-adv-x="1036" d="M88 424q0 190 125.5 319t300.5 129q171 0 285 -110v94h108v-1298h-112v536q-123 -110 -285 -110q-183 0 -302.5 123t-119.5 317zM201 426q0 -154 89 -249t238 -95q79 0 149 36t118 95v432q-48 57 -122 93t-157 36q-136 0 -225.5 -97.5t-89.5 -250.5z" />
<glyph unicode="r" horiz-adv-x="583" d="M129 0v856h109v-162q59 85 140.5 132.5t170.5 47.5v-110q-94 -3 -176.5 -49t-130.5 -129v-586h-113z" />
<glyph unicode="s" horiz-adv-x="724" d="M63 90l56 82q123 -94 239 -94q82 0 128 39.5t46 105.5q0 41 -23.5 72.5t-60.5 52t-82.5 38.5t-90.5 38.5t-82 46t-60.5 67.5t-23.5 97q0 97 75 167t199 70q127 0 248 -81l-51 -86q-102 73 -199 73q-82 0 -125 -37.5t-43 -95.5q0 -39 23.5 -69t61 -49.5t82.5 -37t90 -38 t82.5 -46.5t61 -68.5t23.5 -98.5q0 -103 -77 -178.5t-198 -75.5q-154 0 -299 106z" />
<glyph unicode="t" horiz-adv-x="600" d="M37 756v26l145 80v185l111 81v-272h270v-100h-270v-537q0 -135 143 -135q40 0 92 10l11 -96q-79 -14 -129 -14q-228 0 -228 243v529h-145z" />
<glyph unicode="u" horiz-adv-x="970" d="M121 281v575h115v-551q0 -223 198 -223q77 0 153.5 44t141.5 116v614h113v-856h-109v141q-63 -66 -150 -111.5t-173 -45.5q-144 0 -216.5 81t-72.5 216z" />
<glyph unicode="v" horiz-adv-x="886" d="M16 856h125l301 -682l308 682h120l-421 -881h-21z" />
<glyph unicode="w" horiz-adv-x="1251" d="M43 856h123l192 -643l263 643h20l268 -643l185 643h120l-286 -881h-21l-274 664l-281 -664h-20z" />
<glyph unicode="x" horiz-adv-x="804" d="M33 0l315 428l-313 428h129l246 -344l243 344h123l-311 -424l315 -432h-127l-247 346l-252 -346h-121z" />
<glyph unicode="y" horiz-adv-x="874" d="M16 856h125l297 -684l299 684h123l-604 -1298h-115l242 499z" />
<glyph unicode="z" horiz-adv-x="813" d="M29 18l565 740h-524v98h692l8 -20l-565 -738h553v-98h-721z" />
<glyph unicode="{" horiz-adv-x="606" d="M41 483v97h47q78 0 107.5 35t29.5 112v432q0 357 344 357v-101q-120 0 -177.5 -59t-57.5 -193v-409q0 -97 -28 -146.5t-107 -77.5q79 -28 107 -77t28 -146v-411q0 -134 57.5 -193t177.5 -59v-101q-344 0 -344 355v438q0 76 -29.5 111.5t-107.5 35.5h-47z" />
<glyph unicode="|" horiz-adv-x="473" d="M184 -444v1943h103v-1943h-103z" />
<glyph unicode="}" horiz-adv-x="606" d="M37 -356q120 0 178.5 59.5t58.5 192.5v411q0 96 28 145t106 78q-78 29 -106 78.5t-28 145.5v409q0 133 -58.5 192.5t-178.5 59.5v101q344 0 344 -357v-432q0 -77 29.5 -112t107.5 -35h47v-97h-47q-78 0 -107.5 -35.5t-29.5 -111.5v-438q0 -355 -344 -355v101z" />
<glyph unicode="~" horiz-adv-x="901" d="M141 739q97 114 193 111q55 0 125 -45q70 -43 108 -45q63 0 133 84l58 -70q-96 -113 -193 -110q-53 0 -127 45q-66 42 -106 45q-63 0 -133 -84z" />
<glyph unicode="&#xa1;" horiz-adv-x="415" d="M119 1430q0 38 26 64t64 26q37 0 62.5 -26t25.5 -64q0 -37 -25.5 -63t-62.5 -26q-38 0 -64 26t-26 63zM147 2l17 1128h88l18 -1128h-123z" />
<glyph unicode="&#xa2;" horiz-adv-x="897" d="M84 422q0 180 115.5 307t287.5 141l13 154l96 -8l-12 -148q117 -10 233 -82l-51 -88q-104 61 -191 70l-53 -684h8q120 0 242 74l45 -88q-140 -86 -289 -86h-14l-12 -158l-96 8l12 162q-151 32 -242.5 149.5t-91.5 276.5zM195 426q0 -123 63.5 -209.5t167.5 -118.5l53 672 q-126 -15 -205 -108t-79 -236z" />
<glyph unicode="&#xa3;" horiz-adv-x="890" d="M72 0v102h135v435h-129v16l129 88v168q0 175 97.5 283t277.5 108q132 0 272 -86l-55 -94q-118 78 -232 78q-128 0 -186.5 -79.5t-58.5 -219.5v-164h299v-98h-299v-435h530v-102h-780z" />
<glyph unicode="&#xa5;" horiz-adv-x="1013" d="M55 1182h131l326 -520l319 520h127l-344 -545h283v-100h-332v-152h332v-98h-332v-287h-112v287h-336v98h336v152h-336v100h289z" />
<glyph unicode="&#xa7;" horiz-adv-x="864" d="M109 88l55 82q51 -41 123.5 -68.5t134.5 -27.5q91 0 139.5 35t48.5 100q0 40 -27.5 70t-71 49t-96 35t-105.5 35t-96.5 43.5t-71 64.5t-27.5 94q0 69 45 123t116 78q-106 59 -106 162q0 101 85.5 169t213.5 68q148 0 274 -86l-51 -86q-107 80 -225 80q-85 0 -135.5 -38 t-50.5 -97q0 -41 36.5 -72.5t91 -50t118 -42t118 -48t91 -69.5t36.5 -105q0 -70 -42 -122t-112 -79q101 -62 101 -162q0 -103 -84.5 -172t-218.5 -69q-165 0 -307 106zM223 616q0 -25 12 -45.5t28.5 -34.5t49 -28.5t58.5 -23.5t74 -24.5t79 -27.5q60 9 102 48.5t42 90.5 q0 24 -7 43t-27 35.5t-38.5 28.5t-58.5 27t-69.5 25t-88.5 28q-65 -8 -110.5 -48.5t-45.5 -93.5z" />
<glyph unicode="&#xa8;" horiz-adv-x="901" d="M190 1112q0 35 25.5 61.5t60.5 26.5t60.5 -26.5t25.5 -61.5t-25.5 -60.5t-60.5 -25.5t-60.5 25.5t-25.5 60.5zM539 1112q0 36 26 62t62 26q35 0 60.5 -26.5t25.5 -61.5t-25.5 -60.5t-60.5 -25.5q-37 0 -62.5 25.5t-25.5 60.5z" />
<glyph unicode="&#xa9;" d="M102 750q0 158 60 301.5t162 247.5t242.5 165.5t295.5 61.5t295.5 -61.5t242.5 -165.5t162 -247.5t60 -301.5t-60 -301.5t-162 -247t-242.5 -165t-295.5 -61.5t-295.5 61.5t-242.5 165t-162 247t-60 301.5zM203 750q0 -141 52 -268.5t140 -219t210 -145.5t257 -54 q180 0 332 91t241 249.5t89 346.5q0 189 -88.5 348t-240.5 250.5t-333 91.5q-135 0 -257 -54t-210 -146t-140 -220t-52 -270zM494 758q0 170 114.5 278.5t284.5 108.5q130 0 254 -76l-35 -80q-110 68 -221 68q-129 0 -212 -82t-83 -217t84 -216t215 -81q113 0 219 69l33 -79 q-118 -78 -254 -78q-171 0 -285 107t-114 278z" />
<glyph unicode="&#xaa;" horiz-adv-x="714" d="M80 1065q0 88 67 143.5t168 55.5q94 0 189 -45v49q0 87 -42 127.5t-136 40.5q-80 0 -164 -33l-17 86q100 35 195 35q268 0 268 -258v-387h-100v67q-78 -78 -195 -78q-100 0 -166.5 53t-66.5 144zM180 1069q0 -59 43 -90t115 -31q100 0 166 76v117q-84 49 -170 49 q-67 0 -110.5 -31.5t-43.5 -89.5z" />
<glyph unicode="&#xab;" horiz-adv-x="823" d="M100 354l215 334h119l-221 -334l221 -336h-119zM397 354l215 334h119l-221 -334l221 -336h-119z" />
<glyph unicode="&#xad;" horiz-adv-x="694" d="M102 446v101h490v-101h-490z" />
<glyph unicode="&#xae;" horiz-adv-x="790" d="M51 1169q0 148 100 251.5t244 103.5t245 -104t101 -251q0 -143 -101 -246.5t-245 -103.5q-142 0 -243 102.5t-101 247.5zM106 1169q0 -122 85 -211.5t204 -89.5q121 0 206 89.5t85 211.5q0 126 -85 215t-206 89q-120 0 -204.5 -89t-84.5 -215zM287 1001v340q51 7 92 7 q68 0 104.5 -30.5t36.5 -76.5q0 -34 -17 -62t-46 -40l88 -138h-68l-76 125q-10 -2 -26 -2q-17 0 -31 2v-125h-57zM344 1174q21 -3 37 -3q38 0 59 18t21 50q0 26 -20.5 41.5t-55.5 15.5q-31 0 -41 -2v-120z" />
<glyph unicode="&#xaf;" horiz-adv-x="901" d="M158 1049v98h587v-98h-587z" />
<glyph unicode="&#xb0;" horiz-adv-x="761" d="M164 1194q0 89 61 151t156 62q96 0 157.5 -61.5t61.5 -151.5t-61.5 -151.5t-157.5 -61.5q-95 0 -156 62t-61 151zM246 1194q0 -61 38 -101t97 -40q61 0 98 40t37 101t-37 101t-98 40q-59 0 -97 -40t-38 -101z" />
<glyph unicode="&#xb4;" horiz-adv-x="901" d="M229 1036l371 252l59 -112l-393 -203z" />
<glyph unicode="&#xb6;" horiz-adv-x="1142" d="M100 737q0 209 161 336t437 127q126 0 293 -20v-1180h-106v1083q-59 7 -166 11v-1094h-107v336q-137 -7 -251.5 35.5t-187.5 138t-73 227.5zM223 741q0 -101 57 -174t144 -104.5t188 -24.5v654q-187 -15 -288 -108t-101 -243z" />
<glyph unicode="&#xb7;" horiz-adv-x="454" d="M139 758q0 37 25.5 62.5t62.5 25.5q38 0 64 -25.5t26 -62.5q0 -38 -26 -64t-64 -26q-37 0 -62.5 26t-25.5 64z" />
<glyph unicode="&#xb8;" horiz-adv-x="901" d="M254 -418l37 74q106 -59 180 -59q54 0 83.5 25t29.5 67q0 50 -49.5 84.5t-157.5 44.5l-6 12l53 199l76 -19l-33 -123q108 -22 160.5 -73.5t52.5 -120.5q0 -75 -55.5 -126.5t-153.5 -51.5q-95 0 -217 67z" />
<glyph unicode="&#xba;" horiz-adv-x="778" d="M70 1194q0 139 89.5 234.5t229.5 95.5q141 0 231.5 -95t90.5 -235q0 -138 -91.5 -234t-230.5 -96q-142 0 -230.5 95t-88.5 235zM174 1194q0 -107 59 -174.5t156 -67.5q96 0 156.5 68.5t60.5 173.5q0 107 -60 174.5t-157 67.5q-96 0 -155.5 -68t-59.5 -174z" />
<glyph unicode="&#xbb;" horiz-adv-x="823" d="M92 18l221 336l-221 334h119l215 -334l-215 -336h-119zM389 18l221 336l-221 334h119l215 -334l-215 -336h-119z" />
<glyph unicode="&#xbf;" horiz-adv-x="786" d="M53 328q0 61 21.5 115.5t56.5 95t76.5 77.5t83.5 71.5t77 69t56.5 77.5t21.5 90v163h107v-186q0 -53 -21 -100.5t-55 -84t-75.5 -71.5t-82.5 -69t-75 -69.5t-55 -80.5t-21 -94q0 -108 74 -173t211 -65q121 0 258 70l32 -101q-80 -38 -149.5 -57.5t-149.5 -19.5 q-188 0 -289.5 96t-101.5 246zM410 1430q0 38 26 64t64 26q37 0 62.5 -26t25.5 -64q0 -37 -25.5 -63t-62.5 -26q-38 0 -64 26t-26 63z" />
<glyph unicode="&#xc0;" horiz-adv-x="1425" d="M45 0l657 1526h21l657 -1526h-123l-194 459h-705l-192 -459h-121zM365 1831l63 111l369 -252l-39 -62zM401 557h619l-309 735z" />
<glyph unicode="&#xc1;" horiz-adv-x="1425" d="M45 0l657 1526h21l657 -1526h-123l-194 459h-705l-192 -459h-121zM401 557h619l-309 735zM621 1692l370 252l60 -113l-394 -203z" />
<glyph unicode="&#xc2;" horiz-adv-x="1425" d="M45 0l657 1526h21l657 -1526h-123l-194 459h-705l-192 -459h-121zM401 557h619l-309 735zM434 1653l248 305h61l246 -305h-121l-161 200l-154 -200h-119z" />
<glyph unicode="&#xc3;" horiz-adv-x="1425" d="M45 0l657 1526h21l657 -1526h-123l-194 459h-705l-192 -459h-121zM401 557h619l-309 735zM408 1749q96 114 192 111q55 0 125 -45q71 -44 109 -46q63 0 133 84l57 -69q-97 -114 -193 -111q-52 0 -126 45q-66 42 -107 45q-63 0 -133 -84z" />
<glyph unicode="&#xc4;" horiz-adv-x="1425" d="M45 0l657 1526h21l657 -1526h-123l-194 459h-705l-192 -459h-121zM401 557h619l-309 735zM451 1767q0 35 25.5 61.5t60.5 26.5t60.5 -26.5t25.5 -61.5t-25.5 -60.5t-60.5 -25.5t-60.5 25.5t-25.5 60.5zM799 1767q0 36 26 62t62 26q35 0 60.5 -26.5t25.5 -61.5 t-25.5 -60.5t-60.5 -25.5q-37 0 -62.5 25.5t-25.5 60.5z" />
<glyph unicode="&#xc5;" horiz-adv-x="1425" d="M45 0l627 1458q-76 12 -123 69.5t-47 133.5q0 88 59.5 147.5t151.5 59.5q94 0 152.5 -59.5t58.5 -147.5q0 -77 -47.5 -134.5t-124.5 -70.5l628 -1456h-123l-194 459h-705l-192 -459h-121zM401 557h619l-309 735zM588 1663q0 -60 35.5 -97.5t89.5 -37.5q56 0 91.5 37.5 t35.5 97.5q0 58 -35.5 95.5t-91.5 37.5q-54 0 -89.5 -37.5t-35.5 -95.5z" />
<glyph unicode="&#xc6;" horiz-adv-x="2088" d="M39 0l1079 1501h844v-102h-731v-586h659v-102h-659v-607h731v-104h-848v494h-590l-350 -494h-135zM594 592h520v731z" />
<glyph unicode="&#xc7;" horiz-adv-x="1515" d="M119 748q0 228 107.5 407.5t286 275t392.5 95.5q281 0 522 -164l-51 -96q-233 153 -477 153q-184 0 -332.5 -81.5t-235.5 -235t-87 -352.5q0 -149 51.5 -274.5t140.5 -210.5t210 -132t259 -47q240 0 477 152l41 -95q-241 -160 -512 -163l-24 -93q108 -22 160.5 -73.5 t52.5 -120.5q0 -75 -55.5 -126.5t-153.5 -51.5q-95 0 -217 67l37 74q106 -59 180 -59q54 0 83.5 25t29.5 67q0 50 -49.5 84.5t-157.5 44.5l-6 12l40 154q-149 12 -279.5 71t-226.5 156t-151 236t-55 301z" />
<glyph unicode="&#xc8;" horiz-adv-x="1153" d="M178 0v1501h848v-102h-733v-586h661v-102h-661v-607h733v-104h-848zM256 1831l63 111l369 -252l-39 -62z" />
<glyph unicode="&#xc9;" horiz-adv-x="1153" d="M178 0v1501h848v-102h-733v-586h661v-102h-661v-607h733v-104h-848zM512 1692l371 252l59 -113l-393 -203z" />
<glyph unicode="&#xca;" horiz-adv-x="1153" d="M178 0v1501h848v-102h-733v-586h661v-102h-661v-607h733v-104h-848zM326 1653l247 305h62l246 -305h-121l-162 200l-154 -200h-118z" />
<glyph unicode="&#xcb;" horiz-adv-x="1153" d="M178 0v1501h848v-102h-733v-586h661v-102h-661v-607h733v-104h-848zM342 1767q0 35 25.5 61.5t60.5 26.5t60.5 -26.5t25.5 -61.5t-25.5 -60.5t-60.5 -25.5t-60.5 25.5t-25.5 60.5zM690 1767q0 36 26 62t62 26q35 0 60.5 -26.5t25.5 -61.5t-25.5 -60.5t-60.5 -25.5 q-37 0 -62.5 25.5t-25.5 60.5z" />
<glyph unicode="&#xcc;" horiz-adv-x="485" d="M-104 1831l63 111l369 -252l-39 -62zM186 0v1501h115v-1501h-115z" />
<glyph unicode="&#xcd;" horiz-adv-x="485" d="M152 1692l370 252l60 -113l-394 -203zM186 0v1501h115v-1501h-115z" />
<glyph unicode="&#xce;" horiz-adv-x="485" d="M-35 1653l248 305h61l246 -305h-121l-161 200l-154 -200h-119zM186 0v1501h115v-1501h-115z" />
<glyph unicode="&#xcf;" horiz-adv-x="485" d="M-18 1767q0 35 25.5 61.5t60.5 26.5t60.5 -26.5t25.5 -61.5t-25.5 -60.5t-60.5 -25.5t-60.5 25.5t-25.5 60.5zM186 0v1501h115v-1501h-115zM330 1767q0 36 26 62t62 26q35 0 60.5 -26.5t25.5 -61.5t-25.5 -60.5t-60.5 -25.5q-37 0 -62.5 25.5t-25.5 60.5z" />
<glyph unicode="&#xd0;" horiz-adv-x="1576" d="M61 713v102h179v676q192 25 364 25q163 0 303 -41t240 -112.5t171 -167.5t105.5 -205t34.5 -226q0 -125 -34 -240t-104 -213t-169 -170.5t-237.5 -113.5t-301.5 -41q-188 0 -372 24v703h-179zM354 102q101 -16 264 -16q174 0 312.5 52t226 144.5t133 215t45.5 266.5 q0 135 -48 253t-137.5 207t-229 140t-312.5 51q-160 0 -254 -16v-584h279v-102h-279v-611z" />
<glyph unicode="&#xd1;" horiz-adv-x="1488" d="M178 0v1518l27 6l991 -1260v1237h115v-1519l-21 -5l-999 1274v-1251h-113zM438 1722q97 114 193 111q55 0 125 -45q70 -43 108 -45q63 0 133 84l58 -70q-96 -113 -193 -110q-53 0 -127 45q-66 42 -106 45q-63 0 -133 -84z" />
<glyph unicode="&#xd2;" d="M119 750q0 163 59 307.5t159 246.5t238 161t291 59q152 0 289 -59t236 -161t157 -246.5t58 -307.5q0 -218 -100.5 -395t-271.5 -276t-376 -99q-153 0 -289 58.5t-235 159.5t-157 245t-58 307zM244 750q0 -140 46.5 -263.5t127.5 -212.5t196 -140.5t248 -51.5 q177 0 319 88t221 240.5t79 339.5q0 188 -79 340.5t-221 240.5t-319 88t-319 -88t-220.5 -240.5t-78.5 -340.5zM514 1831l64 111l368 -252l-39 -62z" />
<glyph unicode="&#xd3;" d="M119 750q0 163 59 307.5t159 246.5t238 161t291 59q152 0 289 -59t236 -161t157 -246.5t58 -307.5q0 -218 -100.5 -395t-271.5 -276t-376 -99q-153 0 -289 58.5t-235 159.5t-157 245t-58 307zM244 750q0 -140 46.5 -263.5t127.5 -212.5t196 -140.5t248 -51.5 q177 0 319 88t221 240.5t79 339.5q0 188 -79 340.5t-221 240.5t-319 88t-319 -88t-220.5 -240.5t-78.5 -340.5zM770 1692l371 252l59 -113l-393 -203z" />
<glyph unicode="&#xd4;" d="M119 750q0 163 59 307.5t159 246.5t238 161t291 59q152 0 289 -59t236 -161t157 -246.5t58 -307.5q0 -218 -100.5 -395t-271.5 -276t-376 -99q-153 0 -289 58.5t-235 159.5t-157 245t-58 307zM244 750q0 -140 46.5 -263.5t127.5 -212.5t196 -140.5t248 -51.5 q177 0 319 88t221 240.5t79 339.5q0 188 -79 340.5t-221 240.5t-319 88t-319 -88t-220.5 -240.5t-78.5 -340.5zM584 1653l247 305h62l246 -305h-121l-162 200l-154 -200h-118z" />
<glyph unicode="&#xd5;" d="M119 750q0 163 59 307.5t159 246.5t238 161t291 59q152 0 289 -59t236 -161t157 -246.5t58 -307.5q0 -218 -100.5 -395t-271.5 -276t-376 -99q-153 0 -289 58.5t-235 159.5t-157 245t-58 307zM244 750q0 -140 46.5 -263.5t127.5 -212.5t196 -140.5t248 -51.5 q177 0 319 88t221 240.5t79 339.5q0 188 -79 340.5t-221 240.5t-319 88t-319 -88t-220.5 -240.5t-78.5 -340.5zM557 1749q97 114 193 111q54 0 124 -45q71 -44 109 -46q63 0 133 84l58 -69q-97 -114 -193 -111q-53 0 -127 45q-66 42 -106 45q-64 0 -134 -84z" />
<glyph unicode="&#xd6;" d="M119 750q0 163 59 307.5t159 246.5t238 161t291 59q152 0 289 -59t236 -161t157 -246.5t58 -307.5q0 -218 -100.5 -395t-271.5 -276t-376 -99q-153 0 -289 58.5t-235 159.5t-157 245t-58 307zM244 750q0 -140 46.5 -263.5t127.5 -212.5t196 -140.5t248 -51.5 q177 0 319 88t221 240.5t79 339.5q0 188 -79 340.5t-221 240.5t-319 88t-319 -88t-220.5 -240.5t-78.5 -340.5zM600 1767q0 35 25.5 61.5t60.5 26.5t60.5 -26.5t25.5 -61.5t-25.5 -60.5t-60.5 -25.5t-60.5 25.5t-25.5 60.5zM948 1767q0 36 26 62t62 26q35 0 60.5 -26.5 t25.5 -61.5t-25.5 -60.5t-60.5 -25.5q-37 0 -62.5 25.5t-25.5 60.5z" />
<glyph unicode="&#xd7;" horiz-adv-x="921" d="M143 328l246 245l-246 248l70 72l248 -248l248 248l69 -72l-248 -248l248 -245l-69 -72l-248 248l-248 -248z" />
<glyph unicode="&#xd8;" d="M119 750q0 163 59 307.5t159 246.5t238 161t291 59q140 0 267 -50t225 -141l172 180l69 -69q-139 -145 -174 -180q181 -213 181 -514q0 -218 -100.5 -395t-271.5 -276t-376 -99q-139 0 -265 48.5t-226 137.5l-170 -178l-70 71q11 11 28.5 29.5t55.5 57.5t63 65t25 25 q-180 215 -180 514zM244 750q0 -249 137 -428l899 931q-174 166 -418 166q-177 0 -319 -88t-220.5 -240.5t-78.5 -340.5zM444 246q175 -164 418 -164q177 0 319 88t221 240.5t79 339.5q0 250 -138 430q1 0 -224 -233t-450 -466.5t-225 -234.5z" />
<glyph unicode="&#xd9;" horiz-adv-x="1449" d="M166 545v956h115v-954q0 -226 118 -344.5t324 -118.5q205 0 325.5 120t120.5 343v954h117v-956q0 -262 -153 -413.5t-410 -151.5q-263 0 -410 147.5t-147 417.5zM379 1804l63 111l369 -252l-39 -61z" />
<glyph unicode="&#xda;" horiz-adv-x="1449" d="M166 545v956h115v-954q0 -226 118 -344.5t324 -118.5q205 0 325.5 120t120.5 343v954h117v-956q0 -262 -153 -413.5t-410 -151.5q-263 0 -410 147.5t-147 417.5zM635 1665l371 252l59 -113l-393 -202z" />
<glyph unicode="&#xdb;" horiz-adv-x="1449" d="M166 545v956h115v-954q0 -226 118 -344.5t324 -118.5q205 0 325.5 120t120.5 343v954h117v-956q0 -262 -153 -413.5t-410 -151.5q-263 0 -410 147.5t-147 417.5zM449 1626l247 305h62l246 -305h-121l-162 201l-154 -201h-118z" />
<glyph unicode="&#xdc;" horiz-adv-x="1449" d="M166 545v956h115v-954q0 -226 118 -344.5t324 -118.5q205 0 325.5 120t120.5 343v954h117v-956q0 -262 -153 -413.5t-410 -151.5q-263 0 -410 147.5t-147 417.5zM465 1741q0 35 25.5 61.5t60.5 26.5t60.5 -26.5t25.5 -61.5t-25.5 -60.5t-60.5 -25.5t-60.5 25.5 t-25.5 60.5zM813 1741q0 36 26 62t62 26q35 0 60.5 -26.5t25.5 -61.5t-25.5 -60.5t-60.5 -25.5q-37 0 -62.5 25.5t-25.5 60.5z" />
<glyph unicode="&#xdd;" horiz-adv-x="1282" d="M59 1501h129l457 -729l451 729h127l-525 -827v-674h-114v676zM549 1665l371 252l59 -113l-393 -202z" />
<glyph unicode="&#xde;" horiz-adv-x="1136" d="M178 0v1501h115v-260q84 8 194 8q141 0 253 -38.5t182 -105t106.5 -152t36.5 -183.5q0 -230 -158 -372t-430 -142q-82 0 -184 12v-268h-115zM293 373q133 -15 188 -15q220 0 340.5 112t120.5 294q0 160 -117 270.5t-325 110.5q-93 0 -207 -15v-757z" />
<glyph unicode="&#xdf;" horiz-adv-x="958" d="M137 0v1137q0 187 78.5 283t226.5 96q77 0 131 -21l-20 -98q-46 16 -100 16q-104 0 -153.5 -61.5t-49.5 -200.5v-295h631l8 -20l-307 -385q149 -7 232 -90t83 -209q0 -161 -111.5 -253t-285.5 -92q-70 0 -138 15l15 98q61 -12 121 -12q134 0 211 63t77 176q0 98 -72 158 t-202 60q-36 0 -90 -7l-10 25l295 373h-457v-756h-113z" />
<glyph unicode="&#xe0;" horiz-adv-x="886" d="M78 252q0 119 91.5 193.5t227.5 74.5q123 0 260 -65v77q0 124 -58 182t-189 58q-117 0 -224 -47l-22 98q132 49 258 49q178 0 263 -84.5t85 -255.5v-532h-106v92q-49 -49 -120.5 -78.5t-150.5 -29.5q-136 0 -225.5 71.5t-89.5 196.5zM104 1176l64 110l369 -252l-39 -61z M186 252q0 -84 62 -129t168 -45q148 0 241 112v168q-68 38 -122.5 55t-122.5 17q-102 0 -164 -46.5t-62 -131.5z" />
<glyph unicode="&#xe1;" horiz-adv-x="886" d="M78 252q0 119 91.5 193.5t227.5 74.5q123 0 260 -65v77q0 124 -58 182t-189 58q-117 0 -224 -47l-22 98q132 49 258 49q178 0 263 -84.5t85 -255.5v-532h-106v92q-49 -49 -120.5 -78.5t-150.5 -29.5q-136 0 -225.5 71.5t-89.5 196.5zM186 252q0 -84 62 -129t168 -45 q148 0 241 112v168q-68 38 -122.5 55t-122.5 17q-102 0 -164 -46.5t-62 -131.5zM358 1036l371 252l59 -112l-393 -203z" />
<glyph unicode="&#xe2;" horiz-adv-x="886" d="M78 252q0 119 91.5 193.5t227.5 74.5q123 0 260 -65v77q0 124 -58 182t-189 58q-117 0 -224 -47l-22 98q132 49 258 49q178 0 263 -84.5t85 -255.5v-532h-106v92q-49 -49 -120.5 -78.5t-150.5 -29.5q-136 0 -225.5 71.5t-89.5 196.5zM172 997l248 306h61l246 -306h-121 l-162 201l-153 -201h-119zM186 252q0 -84 62 -129t168 -45q148 0 241 112v168q-68 38 -122.5 55t-122.5 17q-102 0 -164 -46.5t-62 -131.5z" />
<glyph unicode="&#xe3;" horiz-adv-x="886" d="M78 252q0 119 91.5 193.5t227.5 74.5q123 0 260 -65v77q0 124 -58 182t-189 58q-117 0 -224 -47l-22 98q132 49 258 49q178 0 263 -84.5t85 -255.5v-532h-106v92q-49 -49 -120.5 -78.5t-150.5 -29.5q-136 0 -225.5 71.5t-89.5 196.5zM145 1094q96 113 193 110 q55 0 125 -45q70 -43 108 -45q64 0 134 84l57 -70q-96 -113 -193 -110q-53 0 -127 45q-66 42 -106 45q-63 0 -133 -84zM186 252q0 -84 62 -129t168 -45q148 0 241 112v168q-68 38 -122.5 55t-122.5 17q-102 0 -164 -46.5t-62 -131.5z" />
<glyph unicode="&#xe4;" horiz-adv-x="886" d="M78 252q0 119 91.5 193.5t227.5 74.5q123 0 260 -65v77q0 124 -58 182t-189 58q-117 0 -224 -47l-22 98q132 49 258 49q178 0 263 -84.5t85 -255.5v-532h-106v92q-49 -49 -120.5 -78.5t-150.5 -29.5q-136 0 -225.5 71.5t-89.5 196.5zM186 252q0 -84 62 -129t168 -45 q148 0 241 112v168q-68 38 -122.5 55t-122.5 17q-102 0 -164 -46.5t-62 -131.5zM190 1112q0 35 25.5 61.5t60.5 26.5t60.5 -26.5t25.5 -61.5t-25.5 -60.5t-60.5 -25.5t-60.5 25.5t-25.5 60.5zM539 1112q0 36 26 62t62 26q35 0 60.5 -26.5t25.5 -61.5t-25.5 -60.5 t-60.5 -25.5q-37 0 -62.5 25.5t-25.5 60.5z" />
<glyph unicode="&#xe5;" horiz-adv-x="886" d="M78 252q0 119 91.5 193.5t227.5 74.5q123 0 260 -65v77q0 124 -58 182t-189 58q-117 0 -224 -47l-22 98q132 49 258 49q178 0 263 -84.5t85 -255.5v-532h-106v92q-49 -49 -120.5 -78.5t-150.5 -29.5q-136 0 -225.5 71.5t-89.5 196.5zM186 252q0 -84 62 -129t168 -45 q148 0 241 112v168q-68 38 -122.5 55t-122.5 17q-102 0 -164 -46.5t-62 -131.5zM240 1200q0 86 59.5 146.5t151.5 60.5q93 0 152 -60t59 -147q0 -88 -58.5 -147.5t-152.5 -59.5q-92 0 -151.5 59.5t-59.5 147.5zM326 1200q0 -58 35.5 -96.5t89.5 -38.5q55 0 91 38t36 97 t-36 97t-91 38q-54 0 -89.5 -37.5t-35.5 -97.5z" />
<glyph unicode="&#xe6;" horiz-adv-x="1511" d="M78 252q0 118 91.5 193t225.5 75q132 0 262 -65v77q0 124 -57.5 182t-189.5 58q-117 0 -224 -47l-22 98q132 49 260 49q129 0 204 -45.5t105 -138.5q51 86 136 135t194 49q175 0 272 -114t97 -295q0 -40 -2 -60h-662q8 -145 94.5 -232t255.5 -87q117 0 242 51q2 -6 4 -16 t7.5 -31.5t9 -35.5t3.5 -13q-143 -55 -272 -55q-144 0 -243.5 57t-147.5 156q-49 -102 -141 -157.5t-205 -55.5q-125 0 -211 72.5t-86 195.5zM186 252q0 -83 57 -128.5t154 -45.5q46 0 88.5 14.5t80.5 45t64.5 83.5t35.5 123q-115 86 -254 86q-102 0 -164 -46.5t-62 -131.5z M772 494h553q-8 126 -76 203t-194 77q-121 0 -195 -76t-88 -204z" />
<glyph unicode="&#xe7;" horiz-adv-x="868" d="M86 424q0 187 127.5 317.5t321.5 130.5q147 0 284 -86l-51 -88q-117 74 -240 74q-146 0 -238.5 -95.5t-92.5 -248.5q0 -149 97 -246.5t238 -97.5q122 0 242 74l45 -88q-137 -86 -284 -86h-23l-25 -97q108 -22 160.5 -73.5t52.5 -120.5q0 -75 -55 -126.5t-153 -51.5 q-96 0 -218 67l37 74q106 -59 181 -59q54 0 83 25t29 67q0 50 -49.5 84.5t-157.5 44.5l-6 12l43 164q-156 31 -252 150t-96 280z" />
<glyph unicode="&#xe8;" horiz-adv-x="944" d="M86 426q0 122 48 222.5t142.5 162t217.5 61.5q176 0 273 -115.5t97 -297.5q0 -36 -4 -56h-661q8 -145 94.5 -232t255.5 -87q116 0 244 51q1 -6 3.5 -16t7.5 -31.5t8 -35.5t3 -13q-143 -55 -272 -55q-219 0 -338 124t-119 318zM145 1176l64 110l369 -252l-39 -61zM203 494 h553q-8 126 -76.5 203t-194.5 77q-121 0 -194.5 -75.5t-87.5 -204.5z" />
<glyph unicode="&#xe9;" horiz-adv-x="944" d="M86 426q0 122 48 222.5t142.5 162t217.5 61.5q176 0 273 -115.5t97 -297.5q0 -36 -4 -56h-661q8 -145 94.5 -232t255.5 -87q116 0 244 51q1 -6 3.5 -16t7.5 -31.5t8 -35.5t3 -13q-143 -55 -272 -55q-219 0 -338 124t-119 318zM203 494h553q-8 126 -76.5 203t-194.5 77 q-121 0 -194.5 -75.5t-87.5 -204.5zM399 1036l371 252l59 -112l-393 -203z" />
<glyph unicode="&#xea;" horiz-adv-x="944" d="M86 426q0 122 48 222.5t142.5 162t217.5 61.5q176 0 273 -115.5t97 -297.5q0 -36 -4 -56h-661q8 -145 94.5 -232t255.5 -87q116 0 244 51q1 -6 3.5 -16t7.5 -31.5t8 -35.5t3 -13q-143 -55 -272 -55q-219 0 -338 124t-119 318zM203 494h553q-8 126 -76.5 203t-194.5 77 q-121 0 -194.5 -75.5t-87.5 -204.5zM213 997l248 306h61l246 -306h-121l-162 201l-153 -201h-119z" />
<glyph unicode="&#xeb;" horiz-adv-x="944" d="M86 426q0 122 48 222.5t142.5 162t217.5 61.5q176 0 273 -115.5t97 -297.5q0 -36 -4 -56h-661q8 -145 94.5 -232t255.5 -87q116 0 244 51q1 -6 3.5 -16t7.5 -31.5t8 -35.5t3 -13q-143 -55 -272 -55q-219 0 -338 124t-119 318zM203 494h553q-8 126 -76.5 203t-194.5 77 q-121 0 -194.5 -75.5t-87.5 -204.5zM229 1112q0 35 25.5 61.5t60.5 26.5t60.5 -26.5t25.5 -61.5t-25.5 -60.5t-60.5 -25.5t-60.5 25.5t-25.5 60.5zM578 1112q0 36 26 62t62 26q35 0 60.5 -26.5t25.5 -61.5t-25.5 -60.5t-60.5 -25.5q-37 0 -62.5 25.5t-25.5 60.5z" />
<glyph unicode="&#xec;" horiz-adv-x="391" d="M-150 1176l64 110l369 -252l-39 -61zM139 0v856h115v-856h-115z" />
<glyph unicode="&#xed;" horiz-adv-x="391" d="M104 1036l371 252l60 -112l-394 -203zM139 0v856h115v-856h-115z" />
<glyph unicode="&#xee;" horiz-adv-x="391" d="M-82 997l248 306h61l246 -306h-121l-162 201l-153 -201h-119zM139 0v856h115v-856h-115z" />
<glyph unicode="&#xef;" horiz-adv-x="391" d="M-63 1112q0 35 25.5 61.5t60.5 26.5t60.5 -26.5t25.5 -61.5t-25.5 -60.5t-60.5 -25.5t-60.5 25.5t-25.5 60.5zM139 0v856h115v-856h-115zM285 1112q0 36 26 62t62 26q35 0 60.5 -26.5t25.5 -61.5t-25.5 -60.5t-60.5 -25.5q-37 0 -62.5 25.5t-25.5 60.5z" />
<glyph unicode="&#xf0;" horiz-adv-x="1021" d="M88 442q0 181 112.5 306.5t282.5 125.5q197 0 310 -149q-32 132 -114.5 259t-203.5 233l-182 -160l-60 69l168 150q-105 80 -237 143l45 88q153 -73 270 -161l144 127l61 -72l-131 -115q178 -157 280.5 -365t102.5 -462q0 -212 -119 -343.5t-309 -131.5 q-194 0 -307 131.5t-113 326.5zM201 436q0 -147 85.5 -251.5t223.5 -104.5q140 0 226.5 101t86.5 251q0 152 -86 248t-235 96q-135 0 -218 -96t-83 -244z" />
<glyph unicode="&#xf1;" horiz-adv-x="970" d="M129 0v856h109v-147q68 73 153 118t174 45q142 0 213.5 -81t71.5 -216v-575h-115v551q0 110 -47 166.5t-149 56.5q-77 0 -154 -45.5t-143 -118.5v-610h-113zM182 1094q96 113 193 110q55 0 125 -45q70 -43 108 -45q63 0 133 84l58 -70q-96 -113 -193 -110q-53 0 -127 45 q-66 42 -106 45q-63 0 -133 -84z" />
<glyph unicode="&#xf2;" horiz-adv-x="1024" d="M88 428q0 187 120 315.5t306 128.5q185 0 304.5 -127.5t119.5 -314.5q0 -188 -120.5 -317t-305.5 -129q-186 0 -305 127.5t-119 316.5zM166 1176l63 110l369 -252l-39 -61zM201 428q0 -152 86.5 -250t224.5 -98t224.5 98t86.5 250q0 153 -86 250.5t-225 97.5 q-138 0 -224.5 -98t-86.5 -250z" />
<glyph unicode="&#xf3;" horiz-adv-x="1024" d="M88 428q0 187 120 315.5t306 128.5q185 0 304.5 -127.5t119.5 -314.5q0 -188 -120.5 -317t-305.5 -129q-186 0 -305 127.5t-119 316.5zM201 428q0 -152 86.5 -250t224.5 -98t224.5 98t86.5 250q0 153 -86 250.5t-225 97.5q-138 0 -224.5 -98t-86.5 -250zM420 1036 l371 252l59 -112l-393 -203z" />
<glyph unicode="&#xf4;" horiz-adv-x="1024" d="M88 428q0 187 120 315.5t306 128.5q185 0 304.5 -127.5t119.5 -314.5q0 -188 -120.5 -317t-305.5 -129q-186 0 -305 127.5t-119 316.5zM201 428q0 -152 86.5 -250t224.5 -98t224.5 98t86.5 250q0 153 -86 250.5t-225 97.5q-138 0 -224.5 -98t-86.5 -250zM233 997l248 306 h62l245 -306h-120l-162 201l-154 -201h-119z" />
<glyph unicode="&#xf5;" horiz-adv-x="1024" d="M88 428q0 187 120 315.5t306 128.5q185 0 304.5 -127.5t119.5 -314.5q0 -188 -120.5 -317t-305.5 -129q-186 0 -305 127.5t-119 316.5zM201 428q0 -152 86.5 -250t224.5 -98t224.5 98t86.5 250q0 153 -86 250.5t-225 97.5q-138 0 -224.5 -98t-86.5 -250zM207 1094 q96 113 192 110q55 0 125 -45q70 -42 109 -45q63 0 133 84l57 -70q-96 -113 -192 -110q-53 0 -127 45q-66 42 -107 45q-63 0 -133 -84z" />
<glyph unicode="&#xf6;" horiz-adv-x="1024" d="M88 428q0 187 120 315.5t306 128.5q185 0 304.5 -127.5t119.5 -314.5q0 -188 -120.5 -317t-305.5 -129q-186 0 -305 127.5t-119 316.5zM201 428q0 -152 86.5 -250t224.5 -98t224.5 98t86.5 250q0 153 -86 250.5t-225 97.5q-138 0 -224.5 -98t-86.5 -250zM250 1112 q0 35 25.5 61.5t60.5 26.5t60.5 -26.5t25.5 -61.5t-25.5 -60.5t-60.5 -25.5t-60.5 25.5t-25.5 60.5zM598 1112q0 36 26 62t62 26q35 0 60.5 -26.5t25.5 -61.5t-25.5 -60.5t-60.5 -25.5q-37 0 -62.5 25.5t-25.5 60.5z" />
<glyph unicode="&#xf7;" horiz-adv-x="942" d="M123 524v101h696v-101h-696zM389 276q0 35 24 59.5t58 24.5q35 0 58.5 -24.5t23.5 -59.5q0 -33 -23.5 -57t-58.5 -24q-33 0 -57.5 24.5t-24.5 56.5zM389 868q0 35 24 59.5t58 24.5q35 0 58.5 -24.5t23.5 -59.5q0 -33 -23.5 -57.5t-58.5 -24.5q-33 0 -57.5 24.5 t-24.5 57.5z" />
<glyph unicode="&#xf8;" horiz-adv-x="1024" d="M51 43l119 113q-82 118 -82 272q0 123 53.5 224.5t151.5 160.5t221 59q174 0 289 -112l110 106l58 -59l-115 -109q82 -114 82 -268q0 -124 -54 -226t-151.5 -161t-220.5 -59q-171 0 -287 110l-114 -110zM201 428q0 -113 47 -199l481 461q-83 86 -217 86 q-140 0 -225.5 -96.5t-85.5 -251.5zM299 164q84 -84 213 -84q140 0 226.5 97t86.5 251q0 112 -47 195z" />
<glyph unicode="&#xf9;" horiz-adv-x="970" d="M121 281v575h115v-551q0 -223 198 -223q77 0 153.5 44t141.5 116v614h113v-856h-109v141q-63 -66 -150 -111.5t-173 -45.5q-144 0 -216.5 81t-72.5 216zM135 1176l64 110l368 -252l-39 -61z" />
<glyph unicode="&#xfa;" horiz-adv-x="970" d="M121 281v575h115v-551q0 -223 198 -223q77 0 153.5 44t141.5 116v614h113v-856h-109v141q-63 -66 -150 -111.5t-173 -45.5q-144 0 -216.5 81t-72.5 216zM389 1036l371 252l59 -112l-393 -203z" />
<glyph unicode="&#xfb;" horiz-adv-x="970" d="M121 281v575h115v-551q0 -223 198 -223q77 0 153.5 44t141.5 116v614h113v-856h-109v141q-63 -66 -150 -111.5t-173 -45.5q-144 0 -216.5 81t-72.5 216zM203 997l248 306h61l246 -306h-121l-162 201l-153 -201h-119z" />
<glyph unicode="&#xfc;" horiz-adv-x="970" d="M121 281v575h115v-551q0 -223 198 -223q77 0 153.5 44t141.5 116v614h113v-856h-109v141q-63 -66 -150 -111.5t-173 -45.5q-144 0 -216.5 81t-72.5 216zM219 1112q0 35 25.5 61.5t60.5 26.5t60.5 -26.5t25.5 -61.5t-25.5 -60.5t-60.5 -25.5t-60.5 25.5t-25.5 60.5z M567 1112q0 36 26 62t62 26q35 0 60.5 -26.5t25.5 -61.5t-25.5 -60.5t-60.5 -25.5q-37 0 -62.5 25.5t-25.5 60.5z" />
<glyph unicode="&#xfd;" horiz-adv-x="874" d="M16 856h125l297 -684l299 684h123l-604 -1298h-115l242 499zM344 1036l371 252l59 -112l-393 -203z" />
<glyph unicode="&#xfe;" horiz-adv-x="1036" d="M129 -442v1943h109v-749q124 120 301 120q174 0 291.5 -125.5t117.5 -316.5q0 -194 -121 -320t-307 -126q-147 0 -278 88v-514h-113zM242 195q115 -115 278 -115q138 0 227 96.5t89 251.5q0 149 -88.5 247.5t-225.5 98.5q-168 0 -280 -129v-450z" />
<glyph unicode="&#xff;" horiz-adv-x="874" d="M16 856h125l297 -684l299 684h123l-604 -1298h-115l242 499zM176 1112q0 35 25.5 61.5t60.5 26.5t60.5 -26.5t25.5 -61.5t-25.5 -60.5t-60.5 -25.5t-60.5 25.5t-25.5 60.5zM524 1112q0 36 26 62t62 26q35 0 60.5 -26.5t25.5 -61.5t-25.5 -60.5t-60.5 -25.5 q-37 0 -62.5 25.5t-25.5 60.5z" />
<glyph unicode="&#x152;" horiz-adv-x="2187" d="M119 737q0 158 55 297.5t158.5 247.5t267.5 171t367 63q136 0 282 -15h811v-102h-733v-586h662v-102h-662v-607h733v-104h-821q-137 -14 -266 -14q-162 0 -302 41.5t-240 113t-171.5 167t-106 204.5t-34.5 225zM244 737q0 -135 48 -252t137.5 -206t229 -140t312.5 -51 q141 0 241 14v1299q-101 16 -251 16q-140 0 -257.5 -34t-201.5 -95t-142.5 -146t-87 -187t-28.5 -218z" />
<glyph unicode="&#x153;" horiz-adv-x="1675" d="M88 428q0 187 120 315.5t306 128.5q121 0 216 -59t147 -160q49 101 139.5 160t210.5 59q176 0 273 -115.5t97 -297.5q0 -36 -2 -56h-661q6 -145 92.5 -232t255.5 -87q116 0 244 51q1 -6 3.5 -16t7.5 -31.5t8 -35.5t3 -13q-143 -55 -272 -55q-147 0 -249 58.5t-153 162.5 q-52 -102 -146 -161.5t-216 -59.5q-186 0 -305 127.5t-119 316.5zM201 428q0 -152 86.5 -250t224.5 -98t224.5 98t86.5 250q0 153 -86 250.5t-225 97.5q-138 0 -224.5 -98t-86.5 -250zM938 494h551q-6 125 -75 202.5t-195 77.5q-121 0 -194 -75.5t-87 -204.5z" />
<glyph unicode="&#x178;" horiz-adv-x="1282" d="M59 1501h129l457 -729l451 729h127l-525 -827v-674h-114v676zM379 1741q0 35 25.5 61.5t60.5 26.5t60.5 -26.5t25.5 -61.5t-25.5 -60.5t-60.5 -25.5t-60.5 25.5t-25.5 60.5zM727 1741q0 36 26 62t62 26q35 0 60.5 -26.5t25.5 -61.5t-25.5 -60.5t-60.5 -25.5 q-37 0 -62.5 25.5t-25.5 60.5z" />
<glyph unicode="&#x2c6;" horiz-adv-x="901" d="M176 997l248 306h61l246 -306h-121l-161 201l-154 -201h-119z" />
<glyph unicode="&#x2dc;" horiz-adv-x="901" d="M141 1094q96 113 193 110q55 0 125 -45q70 -43 108 -45q63 0 133 84l58 -70q-96 -113 -193 -110q-53 0 -127 45q-66 42 -106 45q-63 0 -133 -84z" />
<glyph unicode="&#x2000;" horiz-adv-x="979" />
<glyph unicode="&#x2001;" horiz-adv-x="1958" />
<glyph unicode="&#x2002;" horiz-adv-x="979" />
<glyph unicode="&#x2003;" horiz-adv-x="1958" />
<glyph unicode="&#x2004;" horiz-adv-x="652" />
<glyph unicode="&#x2005;" horiz-adv-x="489" />
<glyph unicode="&#x2006;" horiz-adv-x="326" />
<glyph unicode="&#x2007;" horiz-adv-x="326" />
<glyph unicode="&#x2008;" horiz-adv-x="244" />
<glyph unicode="&#x2009;" horiz-adv-x="391" />
<glyph unicode="&#x200a;" horiz-adv-x="108" />
<glyph unicode="&#x2010;" horiz-adv-x="694" d="M102 446v101h490v-101h-490z" />
<glyph unicode="&#x2011;" horiz-adv-x="694" d="M102 446v101h490v-101h-490z" />
<glyph unicode="&#x2012;" horiz-adv-x="694" d="M102 446v101h490v-101h-490z" />
<glyph unicode="&#x2013;" horiz-adv-x="1024" d="M102 446v101h820v-101h-820z" />
<glyph unicode="&#x2014;" horiz-adv-x="1536" d="M102 446v101h1332v-101h-1332z" />
<glyph unicode="&#x2018;" horiz-adv-x="323" d="M66 1253q0 75 51 154.5t129 126.5l22 -27q-97 -94 -116 -194q44 -4 70 -29.5t26 -60.5t-25 -59.5t-59 -24.5q-44 0 -71 31.5t-27 82.5z" />
<glyph unicode="&#x2019;" horiz-adv-x="323" d="M55 1155q97 86 117 193q-44 4 -70 30t-26 62q0 35 25.5 59.5t60.5 24.5q43 0 70.5 -33t27.5 -84q0 -74 -52 -153.5t-130 -125.5z" />
<glyph unicode="&#x201a;" horiz-adv-x="323" d="M55 -207q97 86 117 193q-43 4 -69.5 30.5t-26.5 61.5t25.5 59.5t60.5 24.5q43 0 70.5 -32t27.5 -83q0 -75 -52 -154.5t-130 -125.5z" />
<glyph unicode="&#x201c;" horiz-adv-x="598" d="M66 1253q0 75 51 154.5t129 126.5l22 -27q-97 -94 -116 -194q44 -4 70 -29.5t26 -60.5t-25 -59.5t-59 -24.5q-44 0 -71 31.5t-27 82.5zM340 1253q0 75 51 154.5t129 126.5l23 -27q-98 -95 -117 -194q44 -4 70 -29.5t26 -60.5t-25 -59.5t-59 -24.5q-44 0 -71 31.5 t-27 82.5z" />
<glyph unicode="&#x201d;" horiz-adv-x="598" d="M55 1155q97 86 117 193q-44 4 -70 30t-26 62q0 35 25.5 59.5t60.5 24.5q43 0 70.5 -33t27.5 -84q0 -74 -52 -153.5t-130 -125.5zM330 1155q95 85 116 193q-44 4 -70 30t-26 62q0 35 25.5 59.5t60.5 24.5q43 0 71 -33t28 -84q0 -73 -52.5 -153t-130.5 -126z" />
<glyph unicode="&#x201e;" horiz-adv-x="598" d="M55 -207q97 86 117 193q-43 4 -69.5 30.5t-26.5 61.5t25.5 59.5t60.5 24.5q43 0 70.5 -32t27.5 -83q0 -75 -52 -154.5t-130 -125.5zM330 -207q95 85 116 193q-43 4 -69.5 30.5t-26.5 61.5t25.5 59.5t60.5 24.5q43 0 69.5 -32t26.5 -83q0 -75 -51 -154.5t-129 -125.5z" />
<glyph unicode="&#x2022;" horiz-adv-x="718" d="M123 750q0 101 68.5 172t168.5 71q98 0 168 -71t70 -172q0 -100 -70 -172t-168 -72q-99 0 -168 72t-69 172z" />
<glyph unicode="&#x2026;" horiz-adv-x="1239" d="M121 74q0 37 26.5 62.5t63.5 25.5t63.5 -25.5t26.5 -62.5q0 -38 -26.5 -64t-63.5 -26t-63.5 26t-26.5 64zM530 74q0 36 27 62t64 26t63.5 -25.5t26.5 -62.5q0 -38 -26.5 -64t-63.5 -26t-64 26t-27 64zM940 74q0 37 26.5 62.5t63.5 25.5t63.5 -25.5t26.5 -62.5 q0 -38 -26.5 -64t-63.5 -26t-63.5 26t-26.5 64z" />
<glyph unicode="&#x202f;" horiz-adv-x="391" />
<glyph unicode="&#x2039;" horiz-adv-x="526" d="M100 354l215 334h119l-221 -334l221 -336h-119z" />
<glyph unicode="&#x203a;" horiz-adv-x="526" d="M92 18l221 336l-221 334h119l215 -334l-215 -336h-119z" />
<glyph unicode="&#x205f;" horiz-adv-x="489" />
<glyph unicode="&#x20ac;" horiz-adv-x="1308" d="M57 399v97h138q-5 72 -5 90q0 41 7 92h-140v100h162q58 192 221.5 307t372.5 115q206 0 389 -113l-49 -94q-169 105 -348 105q-163 0 -288.5 -85.5t-176.5 -234.5h621v-100h-646q-6 -44 -6 -92q0 -46 6 -90h646v-97h-619q51 -149 179 -232t292 -83q180 0 350 104l39 -94 q-185 -114 -389 -114q-214 0 -376.5 113t-219.5 306h-160z" />
<glyph unicode="&#x2122;" horiz-adv-x="985" d="M39 1434v67h356v-67h-141v-379h-76v379h-139zM483 1055l19 452h10l197 -293l194 293h10l19 -452h-72l-4 276l-143 -219h-8l-146 219l-2 -276h-74z" />
<glyph unicode="&#x25fc;" horiz-adv-x="860" d="M0 0v860h860v-860h-860z" />
<glyph unicode="&#xfb01;" horiz-adv-x="954" d="M49 756v26l144 80v275q0 187 78.5 283t224.5 96q79 0 133 -21l-21 -98q-46 16 -102 16q-103 0 -152 -61.5t-49 -200.5v-295h254v-100h-254v-756h-112v756h-144zM680 1174q0 34 24 58.5t58 24.5q35 0 58.5 -24.5t23.5 -58.5t-23.5 -58t-58.5 -24q-34 0 -58 24t-24 58z M707 0v856h112v-856h-112z" />
<glyph unicode="&#xfb02;" horiz-adv-x="958" d="M49 756v26l144 80v275q0 187 78.5 283t224.5 96q79 0 133 -21l-21 -98q-46 16 -102 16q-103 0 -152 -61.5t-49 -200.5v-295h254v-100h-254v-756h-112v756h-144zM707 0v1501h112v-1501h-112z" />
<glyph unicode="&#xfb03;" horiz-adv-x="1521" d="M49 756v26l144 80v275q0 187 78.5 283t224.5 96q79 0 133 -21l-21 -98q-46 16 -102 16q-103 0 -152 -61.5t-49 -200.5v-295h254v-100h-254v-756h-112v756h-144zM616 756v26l142 80v275q0 187 78.5 283t226.5 96q77 0 131 -21l-20 -98q-46 16 -101 16q-104 0 -153.5 -61.5 t-49.5 -200.5v-295h254v-100h-254v-756h-112v756h-142zM1247 1174q0 34 23.5 58.5t58.5 24.5q34 0 58 -24.5t24 -58.5t-24 -58t-58 -24q-35 0 -58.5 24t-23.5 58zM1272 0v856h114v-856h-114z" />
<glyph unicode="&#xfb04;" horiz-adv-x="1525" d="M49 756v26l144 80v275q0 187 78.5 283t224.5 96q79 0 133 -21l-21 -98q-46 16 -102 16q-103 0 -152 -61.5t-49 -200.5v-295h254v-100h-254v-756h-112v756h-144zM616 756v26l142 80v275q0 187 78.5 283t226.5 96q77 0 131 -21l-20 -98q-46 16 -101 16q-104 0 -153.5 -61.5 t-49.5 -200.5v-295h254v-100h-254v-756h-112v756h-142zM1272 0v1501h114v-1501h-114z" />
</font>
</defs>
</svg>
